solid Exported from Blender-2.82 (sub 7)
facet normal 1.000000 0.000000 0.000000
outer loop
vertex -18.000000 4.000003 8.000000
vertex -18.000000 79.999992 8.000000
vertex -18.000000 80.000000 16.000000
endloop
endfacet
facet normal 1.000000 0.000000 0.000000
outer loop
vertex -18.000000 4.000003 8.000000
vertex -18.000000 80.000000 16.000000
vertex -18.000000 4.000003 16.000000
endloop
endfacet
facet normal 0.000000 1.000000 0.000000
outer loop
vertex 18.000000 4.000003 8.000000
vertex -18.000000 4.000003 8.000000
vertex -18.000000 4.000003 16.000000
endloop
endfacet
facet normal 0.000000 1.000000 0.000000
outer loop
vertex 18.000000 4.000003 8.000000
vertex -18.000000 4.000003 16.000000
vertex 18.000000 4.000003 16.000000
endloop
endfacet
facet normal -1.000000 0.000000 0.000000
outer loop
vertex -26.000000 -53.999996 0.000000
vertex -26.000000 -53.999996 16.000000
vertex -26.000000 80.000000 16.000000
endloop
endfacet
facet normal -1.000000 0.000000 0.000000
outer loop
vertex -26.000000 -53.999996 0.000000
vertex -26.000000 80.000000 16.000000
vertex -26.000000 80.000000 0.000000
endloop
endfacet
facet normal 0.000000 -1.000000 0.000000
outer loop
vertex 1.430146 -80.000000 0.000000
vertex 1.430146 -80.000000 16.000000
vertex -1.430146 -80.000000 16.000000
endloop
endfacet
facet normal 0.000000 -1.000000 0.000000
outer loop
vertex 1.430146 -80.000000 0.000000
vertex -1.430146 -80.000000 16.000000
vertex -1.430146 -80.000000 0.000000
endloop
endfacet
facet normal 0.000000 1.000000 0.000000
outer loop
vertex -26.000000 80.000000 0.000000
vertex -26.000000 80.000000 16.000000
vertex -18.000000 80.000000 16.000000
endloop
endfacet
facet normal 0.000002 1.000000 0.000000
outer loop
vertex -26.000000 80.000000 0.000000
vertex -18.000000 80.000000 16.000000
vertex -18.000000 79.999992 8.000000
endloop
endfacet
facet normal 0.000000 1.000000 0.000000
outer loop
vertex 18.000000 80.000000 16.000000
vertex 26.000000 80.000000 16.000000
vertex 26.000000 80.000000 0.000000
endloop
endfacet
facet normal 0.000000 1.000000 0.000002
outer loop
vertex -26.000000 80.000000 0.000000
vertex -18.000000 79.999992 8.000000
vertex 18.000000 79.999992 8.000000
endloop
endfacet
facet normal -0.000002 1.000000 0.000000
outer loop
vertex 18.000000 79.999992 8.000000
vertex 18.000000 80.000000 16.000000
vertex 26.000000 80.000000 0.000000
endloop
endfacet
facet normal 0.000000 1.000000 0.000000
outer loop
vertex -26.000000 80.000000 0.000000
vertex 18.000000 79.999992 8.000000
vertex 26.000000 80.000000 0.000000
endloop
endfacet
facet normal -1.000000 0.000000 0.000000
outer loop
vertex 18.000000 79.999992 8.000000
vertex 18.000000 4.000003 8.000000
vertex 18.000000 4.000003 16.000000
endloop
endfacet
facet normal -1.000000 0.000000 0.000000
outer loop
vertex 18.000000 79.999992 8.000000
vertex 18.000000 4.000003 16.000000
vertex 18.000000 80.000000 16.000000
endloop
endfacet
facet normal 0.000000 0.000000 1.000000
outer loop
vertex -18.000000 79.999992 8.000000
vertex -18.000000 4.000003 8.000000
vertex 18.000000 4.000003 8.000000
endloop
endfacet
facet normal 0.000000 0.000000 1.000000
outer loop
vertex -18.000000 79.999992 8.000000
vertex 18.000000 4.000003 8.000000
vertex 18.000000 79.999992 8.000000
endloop
endfacet
facet normal 1.000000 0.000000 0.000000
outer loop
vertex 26.000000 80.000000 0.000000
vertex 26.000000 80.000000 16.000000
vertex 26.000000 -53.999996 16.000000
endloop
endfacet
facet normal 1.000000 0.000000 0.000000
outer loop
vertex 26.000000 80.000000 0.000000
vertex 26.000000 -53.999996 16.000000
vertex 26.000000 -53.999996 0.000000
endloop
endfacet
facet normal 0.000000 0.000000 1.000000
outer loop
vertex -26.000000 80.000000 16.000000
vertex -26.000000 -53.999996 16.000000
vertex -18.000000 -53.815350 15.999998
endloop
endfacet
facet normal 0.000001 0.000000 1.000000
outer loop
vertex -26.000000 80.000000 16.000000
vertex -18.000000 -53.815350 15.999998
vertex -18.000000 -1.203775 15.999996
endloop
endfacet
facet normal 0.000000 0.000000 1.000000
outer loop
vertex -18.000000 4.000003 16.000000
vertex -18.000000 80.000000 16.000000
vertex -26.000000 80.000000 16.000000
endloop
endfacet
facet normal 0.000000 0.000000 1.000000
outer loop
vertex 26.000000 80.000000 16.000000
vertex 18.000000 80.000000 16.000000
vertex 18.000000 4.000003 16.000000
endloop
endfacet
facet normal -0.000012 -0.000001 1.000000
outer loop
vertex -18.000000 4.000003 16.000000
vertex -26.000000 80.000000 16.000000
vertex -18.000000 -1.203775 15.999996
endloop
endfacet
facet normal 0.000000 0.000000 1.000000
outer loop
vertex 26.000000 -53.999996 16.000000
vertex 26.000000 80.000000 16.000000
vertex 18.000000 4.000003 16.000000
endloop
endfacet
facet normal 0.000000 -0.000001 1.000000
outer loop
vertex 18.000000 4.000003 16.000000
vertex -18.000000 4.000003 16.000000
vertex -18.000000 -1.203775 15.999996
endloop
endfacet
facet normal -0.000009 -0.000001 1.000000
outer loop
vertex 18.000000 -1.203775 15.999996
vertex 26.000000 -53.999996 16.000000
vertex 18.000000 4.000003 16.000000
endloop
endfacet
facet normal 0.000000 -0.000001 1.000000
outer loop
vertex -18.000000 -1.203775 15.999996
vertex 18.000000 -1.203775 15.999996
vertex 18.000000 4.000003 16.000000
endloop
endfacet
facet normal -0.069193 -0.997603 0.000000
outer loop
vertex -1.430146 -80.000000 0.000000
vertex -1.430146 -80.000000 16.000000
vertex -4.637154 -79.777565 16.000000
endloop
endfacet
facet normal -0.069193 -0.997603 0.000000
outer loop
vertex -1.430146 -80.000000 0.000000
vertex -4.637154 -79.777565 16.000000
vertex -4.637154 -79.777565 0.000000
endloop
endfacet
facet normal -0.205978 -0.978557 0.000000
outer loop
vertex -4.637154 -79.777565 0.000000
vertex -4.637154 -79.777565 16.000000
vertex -7.789290 -79.114067 16.000000
endloop
endfacet
facet normal -0.205978 -0.978557 0.000000
outer loop
vertex -4.637154 -79.777565 0.000000
vertex -7.789290 -79.114067 16.000000
vertex -7.789290 -79.114067 0.000000
endloop
endfacet
facet normal -0.338063 -0.941124 0.000000
outer loop
vertex -7.789290 -79.114067 0.000000
vertex -7.789290 -79.114067 16.000000
vertex -10.832621 -78.020866 16.000000
endloop
endfacet
facet normal -0.338063 -0.941124 0.000000
outer loop
vertex -7.789290 -79.114067 0.000000
vertex -10.832621 -78.020866 16.000000
vertex -10.832621 -78.020866 0.000000
endloop
endfacet
facet normal -0.462644 -0.886544 0.000000
outer loop
vertex -10.832621 -78.020866 0.000000
vertex -10.832621 -78.020866 16.000000
vertex -13.715073 -76.516655 16.000000
endloop
endfacet
facet normal -0.462644 -0.886544 0.000000
outer loop
vertex -10.832621 -78.020866 0.000000
vertex -13.715073 -76.516655 16.000000
vertex -13.715073 -76.516655 0.000000
endloop
endfacet
facet normal -0.577331 -0.816510 0.000000
outer loop
vertex -13.715073 -76.516655 0.000000
vertex -13.715073 -76.516655 16.000000
vertex -16.387323 -74.627182 16.000000
endloop
endfacet
facet normal -0.577331 -0.816510 0.000000
outer loop
vertex -13.715073 -76.516655 0.000000
vertex -16.387323 -74.627182 16.000000
vertex -16.387323 -74.627182 0.000000
endloop
endfacet
facet normal -0.680233 -0.732996 0.000000
outer loop
vertex -16.387323 -74.627182 0.000000
vertex -16.387323 -74.627182 16.000000
vertex -18.803654 -72.384781 16.000000
endloop
endfacet
facet normal -0.680234 -0.732995 0.000000
outer loop
vertex -16.387323 -74.627182 0.000000
vertex -18.803654 -72.384781 16.000000
vertex -18.803654 -72.384781 0.000000
endloop
endfacet
facet normal -0.769959 -0.638093 0.000000
outer loop
vertex -18.803654 -72.384781 0.000000
vertex -18.803654 -72.384781 16.000000
vertex -20.922720 -69.827797 16.000000
endloop
endfacet
facet normal -0.769959 -0.638094 0.000000
outer loop
vertex -18.803654 -72.384781 0.000000
vertex -20.922720 -69.827797 16.000000
vertex -20.922720 -69.827797 0.000000
endloop
endfacet
facet normal -0.845548 -0.533900 0.000000
outer loop
vertex -20.922720 -69.827797 0.000000
vertex -20.922720 -69.827797 16.000000
vertex -22.708261 -67.000000 16.000000
endloop
endfacet
facet normal -0.845548 -0.533900 0.000000
outer loop
vertex -20.922720 -69.827797 0.000000
vertex -22.708261 -67.000000 16.000000
vertex -22.708261 -67.000000 0.000000
endloop
endfacet
facet normal -0.906408 -0.422404 0.000000
outer loop
vertex -22.708261 -67.000000 0.000000
vertex -22.708261 -67.000000 16.000000
vertex -24.129728 -63.949768 16.000000
endloop
endfacet
facet normal -0.906408 -0.422404 0.000000
outer loop
vertex -22.708261 -67.000000 0.000000
vertex -24.129728 -63.949768 16.000000
vertex -24.129728 -63.949768 0.000000
endloop
endfacet
facet normal -0.952208 -0.305451 0.000000
outer loop
vertex -24.129728 -63.949768 0.000000
vertex -24.129728 -63.949768 16.000000
vertex -25.162800 -60.729294 16.000000
endloop
endfacet
facet normal -0.952208 -0.305452 0.000000
outer loop
vertex -24.129728 -63.949768 0.000000
vertex -25.162800 -60.729294 16.000000
vertex -25.162800 -60.729294 0.000000
endloop
endfacet
facet normal -0.982788 -0.184736 0.000000
outer loop
vertex -25.162800 -60.729294 0.000000
vertex -25.162800 -60.729294 16.000000
vertex -25.789801 -57.393681 16.000000
endloop
endfacet
facet normal -0.982788 -0.184737 0.000000
outer loop
vertex -25.162800 -60.729294 0.000000
vertex -25.789801 -57.393681 16.000000
vertex -25.789801 -57.393681 0.000000
endloop
endfacet
facet normal -0.998087 -0.061820 0.000000
outer loop
vertex -25.789801 -57.393681 0.000000
vertex -25.789801 -57.393681 16.000000
vertex -26.000000 -53.999996 16.000000
endloop
endfacet
facet normal -0.998087 -0.061819 0.000000
outer loop
vertex -25.789801 -57.393681 0.000000
vertex -26.000000 -53.999996 16.000000
vertex -26.000000 -53.999996 0.000000
endloop
endfacet
facet normal 0.069193 -0.997603 0.000000
outer loop
vertex 1.430146 -80.000000 16.000000
vertex 1.430146 -80.000000 0.000000
vertex 4.637154 -79.777565 0.000000
endloop
endfacet
facet normal 0.069193 -0.997603 0.000000
outer loop
vertex 1.430146 -80.000000 16.000000
vertex 4.637154 -79.777565 0.000000
vertex 4.637154 -79.777565 16.000000
endloop
endfacet
facet normal 0.205978 -0.978557 0.000000
outer loop
vertex 4.637154 -79.777565 16.000000
vertex 4.637154 -79.777565 0.000000
vertex 7.789290 -79.114067 0.000000
endloop
endfacet
facet normal 0.205978 -0.978557 0.000000
outer loop
vertex 4.637154 -79.777565 16.000000
vertex 7.789290 -79.114067 0.000000
vertex 7.789290 -79.114067 16.000000
endloop
endfacet
facet normal 0.338063 -0.941124 0.000000
outer loop
vertex 7.789290 -79.114067 16.000000
vertex 7.789290 -79.114067 0.000000
vertex 10.832621 -78.020866 0.000000
endloop
endfacet
facet normal 0.338063 -0.941124 0.000000
outer loop
vertex 7.789290 -79.114067 16.000000
vertex 10.832621 -78.020866 0.000000
vertex 10.832621 -78.020866 16.000000
endloop
endfacet
facet normal 0.462644 -0.886544 0.000000
outer loop
vertex 10.832621 -78.020866 16.000000
vertex 10.832621 -78.020866 0.000000
vertex 13.715073 -76.516655 0.000000
endloop
endfacet
facet normal 0.462644 -0.886544 0.000000
outer loop
vertex 10.832621 -78.020866 16.000000
vertex 13.715073 -76.516655 0.000000
vertex 13.715073 -76.516655 16.000000
endloop
endfacet
facet normal 0.577331 -0.816510 0.000000
outer loop
vertex 13.715073 -76.516655 16.000000
vertex 13.715073 -76.516655 0.000000
vertex 16.387323 -74.627182 0.000000
endloop
endfacet
facet normal 0.577331 -0.816510 0.000000
outer loop
vertex 13.715073 -76.516655 16.000000
vertex 16.387323 -74.627182 0.000000
vertex 16.387323 -74.627182 16.000000
endloop
endfacet
facet normal 0.680233 -0.732996 0.000000
outer loop
vertex 16.387323 -74.627182 16.000000
vertex 16.387323 -74.627182 0.000000
vertex 18.803654 -72.384781 0.000000
endloop
endfacet
facet normal 0.680234 -0.732995 0.000000
outer loop
vertex 16.387323 -74.627182 16.000000
vertex 18.803654 -72.384781 0.000000
vertex 18.803654 -72.384781 16.000000
endloop
endfacet
facet normal 0.769959 -0.638093 0.000000
outer loop
vertex 18.803654 -72.384781 16.000000
vertex 18.803654 -72.384781 0.000000
vertex 20.922720 -69.827797 0.000000
endloop
endfacet
facet normal 0.769959 -0.638094 0.000000
outer loop
vertex 18.803654 -72.384781 16.000000
vertex 20.922720 -69.827797 0.000000
vertex 20.922720 -69.827797 16.000000
endloop
endfacet
facet normal 0.845548 -0.533900 0.000000
outer loop
vertex 20.922720 -69.827797 16.000000
vertex 20.922720 -69.827797 0.000000
vertex 22.708261 -67.000000 0.000000
endloop
endfacet
facet normal 0.845548 -0.533900 0.000000
outer loop
vertex 20.922720 -69.827797 16.000000
vertex 22.708261 -67.000000 0.000000
vertex 22.708261 -67.000000 16.000000
endloop
endfacet
facet normal 0.906408 -0.422404 0.000000
outer loop
vertex 22.708261 -67.000000 16.000000
vertex 22.708261 -67.000000 0.000000
vertex 24.129728 -63.949768 0.000000
endloop
endfacet
facet normal 0.906408 -0.422404 0.000000
outer loop
vertex 22.708261 -67.000000 16.000000
vertex 24.129728 -63.949768 0.000000
vertex 24.129728 -63.949768 16.000000
endloop
endfacet
facet normal 0.952208 -0.305451 0.000000
outer loop
vertex 24.129728 -63.949768 16.000000
vertex 24.129728 -63.949768 0.000000
vertex 25.162800 -60.729294 0.000000
endloop
endfacet
facet normal 0.952208 -0.305452 0.000000
outer loop
vertex 24.129728 -63.949768 16.000000
vertex 25.162800 -60.729294 0.000000
vertex 25.162800 -60.729294 16.000000
endloop
endfacet
facet normal 0.982788 -0.184736 0.000000
outer loop
vertex 25.162800 -60.729294 16.000000
vertex 25.162800 -60.729294 0.000000
vertex 25.789801 -57.393681 0.000000
endloop
endfacet
facet normal 0.982788 -0.184737 0.000000
outer loop
vertex 25.162800 -60.729294 16.000000
vertex 25.789801 -57.393681 0.000000
vertex 25.789801 -57.393681 16.000000
endloop
endfacet
facet normal 0.998087 -0.061820 0.000000
outer loop
vertex 25.789801 -57.393681 16.000000
vertex 25.789801 -57.393681 0.000000
vertex 26.000000 -53.999996 0.000000
endloop
endfacet
facet normal 0.998087 -0.061819 0.000000
outer loop
vertex 25.789801 -57.393681 16.000000
vertex 26.000000 -53.999996 0.000000
vertex 26.000000 -53.999996 16.000000
endloop
endfacet
facet normal 0.000000 0.000000 -1.000000
outer loop
vertex 26.000000 80.000000 0.000000
vertex 26.000000 -53.999996 0.000000
vertex 18.000000 -53.815365 0.000000
endloop
endfacet
facet normal 0.000000 -0.000000 -1.000000
outer loop
vertex 26.000000 80.000000 0.000000
vertex 18.000000 -53.815365 0.000000
vertex 18.000000 -1.203775 -0.000001
endloop
endfacet
facet normal -0.000000 0.000000 -1.000000
outer loop
vertex -18.000000 -1.203775 -0.000001
vertex -26.000000 -53.999996 0.000000
vertex -26.000000 80.000000 0.000000
endloop
endfacet
facet normal 0.000000 0.000000 -1.000000
outer loop
vertex 26.000000 80.000000 0.000000
vertex 18.000000 -1.203775 -0.000001
vertex -18.000000 -1.203775 -0.000001
endloop
endfacet
facet normal 0.000000 0.000000 -1.000000
outer loop
vertex -26.000000 80.000000 0.000000
vertex 26.000000 80.000000 0.000000
vertex -18.000000 -1.203775 -0.000001
endloop
endfacet
facet normal -0.098017 0.995185 0.000000
outer loop
vertex -0.000006 -71.815369 0.000000
vertex -0.000006 -71.815369 16.000002
vertex 3.511621 -71.469505 15.999998
endloop
endfacet
facet normal -0.098017 0.995185 0.000000
outer loop
vertex -0.000006 -71.815369 0.000000
vertex 3.511621 -71.469505 15.999998
vertex 3.511621 -71.469505 0.000000
endloop
endfacet
facet normal 0.098017 0.995185 0.000000
outer loop
vertex -3.511633 -71.469505 0.000000
vertex -3.511633 -71.469505 16.000002
vertex -0.000006 -71.815369 16.000002
endloop
endfacet
facet normal 0.098017 0.995185 0.000000
outer loop
vertex -3.511633 -71.469505 0.000000
vertex -0.000006 -71.815369 16.000002
vertex -0.000006 -71.815369 0.000000
endloop
endfacet
facet normal -0.290284 0.956941 0.000000
outer loop
vertex 3.511621 -71.469505 0.000000
vertex 3.511621 -71.469505 15.999998
vertex 6.888299 -70.445206 15.999998
endloop
endfacet
facet normal -0.290284 0.956941 0.000000
outer loop
vertex 3.511621 -71.469505 0.000000
vertex 6.888299 -70.445206 15.999998
vertex 6.888299 -70.445206 0.000000
endloop
endfacet
facet normal -0.773010 0.634393 0.000000
outer loop
vertex 12.727921 -66.543289 0.000000
vertex 12.727922 -66.543289 16.000000
vertex 14.966455 -63.815632 16.000000
endloop
endfacet
facet normal -0.773010 0.634394 0.000000
outer loop
vertex 12.727921 -66.543289 0.000000
vertex 14.966455 -63.815632 16.000000
vertex 14.966455 -63.815632 0.000000
endloop
endfacet
facet normal -0.634393 0.773010 0.000000
outer loop
vertex 10.000263 -68.781822 0.000000
vertex 10.000263 -68.781822 15.999998
vertex 12.727922 -66.543289 16.000000
endloop
endfacet
facet normal -0.634393 0.773010 -0.000000
outer loop
vertex 10.000263 -68.781822 0.000000
vertex 12.727922 -66.543289 16.000000
vertex 12.727921 -66.543289 0.000000
endloop
endfacet
facet normal -1.000000 -0.000000 0.000000
outer loop
vertex 18.000000 -1.203775 15.999996
vertex 18.000000 -1.203775 -0.000001
vertex 18.000000 -53.815365 0.000000
endloop
endfacet
facet normal -1.000000 0.000000 0.000000
outer loop
vertex 18.000000 -1.203775 15.999996
vertex 18.000000 -53.815365 0.000000
vertex 18.000000 -53.815365 16.000000
endloop
endfacet
facet normal 0.290288 0.956939 0.000000
outer loop
vertex -6.888309 -70.445190 0.000000
vertex -6.888309 -70.445190 16.000000
vertex -3.511633 -71.469505 16.000002
endloop
endfacet
facet normal 0.290288 0.956939 0.000000
outer loop
vertex -6.888309 -70.445190 0.000000
vertex -3.511633 -71.469505 16.000002
vertex -3.511633 -71.469505 0.000000
endloop
endfacet
facet normal 0.634393 0.773011 0.000000
outer loop
vertex -12.727931 -66.543282 0.000000
vertex -12.727931 -66.543282 16.000002
vertex -10.000273 -68.781815 16.000002
endloop
endfacet
facet normal 0.634394 0.773010 0.000000
outer loop
vertex -12.727931 -66.543282 0.000000
vertex -10.000273 -68.781815 16.000002
vertex -10.000272 -68.781815 0.000000
endloop
endfacet
facet normal 1.000000 0.000000 0.000000
outer loop
vertex -18.000000 -1.203775 -0.000001
vertex -18.000000 -1.203775 15.999996
vertex -18.000000 -53.815350 15.999998
endloop
endfacet
facet normal 1.000000 -0.000000 0.000000
outer loop
vertex -18.000000 -1.203775 -0.000001
vertex -18.000000 -53.815350 15.999998
vertex -18.000000 -53.815350 0.000000
endloop
endfacet
facet normal 0.000000 0.000000 1.000000
outer loop
vertex 25.789801 -57.393681 16.000000
vertex 26.000000 -53.999996 16.000000
vertex 18.000000 -1.203775 15.999996
endloop
endfacet
facet normal 0.000000 0.000000 1.000000
outer loop
vertex 25.789801 -57.393681 16.000000
vertex 18.000000 -1.203775 15.999996
vertex 18.000000 -53.815365 16.000000
endloop
endfacet
facet normal 0.000000 0.000000 1.000000
outer loop
vertex 24.129728 -63.949768 16.000000
vertex 25.162800 -60.729294 16.000000
vertex 25.789801 -57.393681 16.000000
endloop
endfacet
facet normal 0.000000 0.000000 1.000000
outer loop
vertex 20.922720 -69.827797 16.000000
vertex 22.708261 -67.000000 16.000000
vertex 24.129728 -63.949768 16.000000
endloop
endfacet
facet normal 0.000000 0.000000 1.000000
outer loop
vertex 16.387323 -74.627182 16.000000
vertex 18.803654 -72.384781 16.000000
vertex 20.922720 -69.827797 16.000000
endloop
endfacet
facet normal 0.000000 0.000000 1.000000
outer loop
vertex 10.832621 -78.020866 16.000000
vertex 13.715073 -76.516655 16.000000
vertex 16.387323 -74.627182 16.000000
endloop
endfacet
facet normal 0.000000 0.000000 1.000000
outer loop
vertex 4.637154 -79.777565 16.000000
vertex 7.789290 -79.114067 16.000000
vertex 10.832621 -78.020866 16.000000
endloop
endfacet
facet normal 0.000000 0.000000 1.000000
outer loop
vertex -1.430146 -80.000000 16.000000
vertex 1.430146 -80.000000 16.000000
vertex 4.637154 -79.777565 16.000000
endloop
endfacet
facet normal 0.000000 0.000000 1.000000
outer loop
vertex -7.789290 -79.114067 16.000000
vertex -4.637154 -79.777565 16.000000
vertex -1.430146 -80.000000 16.000000
endloop
endfacet
facet normal 0.000000 0.000000 1.000000
outer loop
vertex -13.715073 -76.516655 16.000000
vertex -10.832621 -78.020866 16.000000
vertex -7.789290 -79.114067 16.000000
endloop
endfacet
facet normal 0.000000 0.000000 1.000000
outer loop
vertex -18.803654 -72.384781 16.000000
vertex -16.387323 -74.627182 16.000000
vertex -13.715073 -76.516655 16.000000
endloop
endfacet
facet normal 0.000000 0.000000 1.000000
outer loop
vertex -22.708261 -67.000000 16.000000
vertex -20.922720 -69.827797 16.000000
vertex -18.803654 -72.384781 16.000000
endloop
endfacet
facet normal 0.000000 0.000000 1.000000
outer loop
vertex -25.162800 -60.729294 16.000000
vertex -24.129728 -63.949768 16.000000
vertex -22.708261 -67.000000 16.000000
endloop
endfacet
facet normal 0.000000 0.000000 1.000000
outer loop
vertex -26.000000 -53.999996 16.000000
vertex -25.789801 -57.393681 16.000000
vertex -25.162800 -60.729294 16.000000
endloop
endfacet
facet normal 0.000000 0.000000 1.000000
outer loop
vertex -17.654139 -57.326981 15.999998
vertex -18.000000 -53.815350 15.999998
vertex -26.000000 -53.999996 16.000000
endloop
endfacet
facet normal 0.000000 0.000000 1.000000
outer loop
vertex -16.629839 -60.703659 15.999998
vertex -17.654139 -57.326981 15.999998
vertex -26.000000 -53.999996 16.000000
endloop
endfacet
facet normal 0.000000 0.000000 1.000000
outer loop
vertex -26.000000 -53.999996 16.000000
vertex -25.162800 -60.729294 16.000000
vertex -22.708261 -67.000000 16.000000
endloop
endfacet
facet normal 0.000000 0.000000 1.000000
outer loop
vertex -22.708261 -67.000000 16.000000
vertex -18.803654 -72.384781 16.000000
vertex -13.715073 -76.516655 16.000000
endloop
endfacet
facet normal 0.000000 0.000000 1.000000
outer loop
vertex -13.715073 -76.516655 16.000000
vertex -7.789290 -79.114067 16.000000
vertex -1.430146 -80.000000 16.000000
endloop
endfacet
facet normal 0.000000 0.000000 1.000000
outer loop
vertex -1.430146 -80.000000 16.000000
vertex 4.637154 -79.777565 16.000000
vertex 10.832621 -78.020866 16.000000
endloop
endfacet
facet normal 0.000000 0.000000 1.000000
outer loop
vertex 10.832621 -78.020866 16.000000
vertex 16.387323 -74.627182 16.000000
vertex 20.922720 -69.827797 16.000000
endloop
endfacet
facet normal 0.000000 0.000000 1.000000
outer loop
vertex 20.922720 -69.827797 16.000000
vertex 24.129728 -63.949768 16.000000
vertex 25.789801 -57.393681 16.000000
endloop
endfacet
facet normal 0.000000 0.000000 1.000000
outer loop
vertex 25.789801 -57.393681 16.000000
vertex 18.000000 -53.815365 16.000000
vertex 17.654135 -57.326996 16.000000
endloop
endfacet
facet normal 0.000000 0.000000 1.000000
outer loop
vertex 25.789801 -57.393681 16.000000
vertex 17.654135 -57.326996 16.000000
vertex 16.629831 -60.703667 16.000000
endloop
endfacet
facet normal 0.000000 0.000000 1.000000
outer loop
vertex 10.832621 -78.020866 16.000000
vertex 20.922720 -69.827797 16.000000
vertex 25.789801 -57.393681 16.000000
endloop
endfacet
facet normal 0.000000 0.000000 1.000000
outer loop
vertex -13.715073 -76.516655 16.000000
vertex -1.430146 -80.000000 16.000000
vertex 10.832621 -78.020866 16.000000
endloop
endfacet
facet normal 0.000000 0.000000 1.000000
outer loop
vertex -26.000000 -53.999996 16.000000
vertex -22.708261 -67.000000 16.000000
vertex -13.715073 -76.516655 16.000000
endloop
endfacet
facet normal 0.000000 0.000000 1.000000
outer loop
vertex -14.966461 -63.815620 15.999998
vertex -16.629839 -60.703659 15.999998
vertex -26.000000 -53.999996 16.000000
endloop
endfacet
facet normal 0.000004 0.000006 1.000000
outer loop
vertex -12.727931 -66.543282 16.000002
vertex -14.966461 -63.815620 15.999998
vertex -26.000000 -53.999996 16.000000
endloop
endfacet
facet normal 0.000000 0.000000 1.000000
outer loop
vertex 10.832621 -78.020866 16.000000
vertex 25.789801 -57.393681 16.000000
vertex 16.629831 -60.703667 16.000000
endloop
endfacet
facet normal 0.000000 0.000000 1.000000
outer loop
vertex 10.832621 -78.020866 16.000000
vertex 16.629831 -60.703667 16.000000
vertex 14.966455 -63.815632 16.000000
endloop
endfacet
facet normal 0.000000 -0.000000 1.000000
outer loop
vertex -12.727931 -66.543282 16.000002
vertex -26.000000 -53.999996 16.000000
vertex -13.715073 -76.516655 16.000000
endloop
endfacet
facet normal 0.000000 -0.000000 1.000000
outer loop
vertex -10.000273 -68.781815 16.000002
vertex -12.727931 -66.543282 16.000002
vertex -13.715073 -76.516655 16.000000
endloop
endfacet
facet normal 0.000000 0.000000 1.000000
outer loop
vertex 10.832621 -78.020866 16.000000
vertex 14.966455 -63.815632 16.000000
vertex 12.727922 -66.543289 16.000000
endloop
endfacet
facet normal -0.000001 0.000000 1.000000
outer loop
vertex 10.832621 -78.020866 16.000000
vertex 12.727922 -66.543289 16.000000
vertex 10.000263 -68.781822 15.999998
endloop
endfacet
facet normal 0.000000 -0.000000 1.000000
outer loop
vertex -6.888309 -70.445190 16.000000
vertex -10.000273 -68.781815 16.000002
vertex -13.715073 -76.516655 16.000000
endloop
endfacet
facet normal 0.000000 0.000000 1.000000
outer loop
vertex -3.511633 -71.469505 16.000002
vertex -6.888309 -70.445190 16.000000
vertex -13.715073 -76.516655 16.000000
endloop
endfacet
facet normal 0.000000 0.000000 1.000000
outer loop
vertex 10.832621 -78.020866 16.000000
vertex 10.000263 -68.781822 15.999998
vertex 6.888299 -70.445206 15.999998
endloop
endfacet
facet normal -0.000000 0.000000 1.000000
outer loop
vertex 10.832621 -78.020866 16.000000
vertex 6.888299 -70.445206 15.999998
vertex 3.511621 -71.469505 15.999998
endloop
endfacet
facet normal 0.000000 -0.000000 1.000000
outer loop
vertex -3.511633 -71.469505 16.000002
vertex -13.715073 -76.516655 16.000000
vertex 10.832621 -78.020866 16.000000
endloop
endfacet
facet normal 0.000001 0.000001 1.000000
outer loop
vertex 10.832621 -78.020866 16.000000
vertex 3.511621 -71.469505 15.999998
vertex -0.000006 -71.815369 16.000002
endloop
endfacet
facet normal 0.000000 -0.000000 1.000000
outer loop
vertex -0.000006 -71.815369 16.000002
vertex -3.511633 -71.469505 16.000002
vertex 10.832621 -78.020866 16.000000
endloop
endfacet
facet normal 0.471396 0.881922 0.000000
outer loop
vertex -10.000272 -68.781815 0.000000
vertex -10.000273 -68.781815 16.000002
vertex -6.888309 -70.445190 16.000000
endloop
endfacet
facet normal 0.471396 0.881922 0.000000
outer loop
vertex -10.000272 -68.781815 0.000000
vertex -6.888309 -70.445190 16.000000
vertex -6.888309 -70.445190 0.000000
endloop
endfacet
facet normal -0.000000 -0.000000 -1.000000
outer loop
vertex -25.789801 -57.393681 0.000000
vertex -26.000000 -53.999996 0.000000
vertex -18.000000 -1.203775 -0.000001
endloop
endfacet
facet normal 0.000000 -0.000000 -1.000000
outer loop
vertex -25.789801 -57.393681 0.000000
vertex -18.000000 -1.203775 -0.000001
vertex -18.000000 -53.815350 0.000000
endloop
endfacet
facet normal 0.000000 0.000000 -1.000000
outer loop
vertex -24.129728 -63.949768 0.000000
vertex -25.162800 -60.729294 0.000000
vertex -25.789801 -57.393681 0.000000
endloop
endfacet
facet normal 0.000000 0.000000 -1.000000
outer loop
vertex -20.922720 -69.827797 0.000000
vertex -22.708261 -67.000000 0.000000
vertex -24.129728 -63.949768 0.000000
endloop
endfacet
facet normal 0.000000 0.000000 -1.000000
outer loop
vertex -16.387323 -74.627182 0.000000
vertex -18.803654 -72.384781 0.000000
vertex -20.922720 -69.827797 0.000000
endloop
endfacet
facet normal 0.000000 0.000000 -1.000000
outer loop
vertex -10.832621 -78.020866 0.000000
vertex -13.715073 -76.516655 0.000000
vertex -16.387323 -74.627182 0.000000
endloop
endfacet
facet normal 0.000000 0.000000 -1.000000
outer loop
vertex -4.637154 -79.777565 0.000000
vertex -7.789290 -79.114067 0.000000
vertex -10.832621 -78.020866 0.000000
endloop
endfacet
facet normal 0.000000 0.000000 -1.000000
outer loop
vertex 1.430146 -80.000000 0.000000
vertex -1.430146 -80.000000 0.000000
vertex -4.637154 -79.777565 0.000000
endloop
endfacet
facet normal 0.000000 0.000000 -1.000000
outer loop
vertex 7.789290 -79.114067 0.000000
vertex 4.637154 -79.777565 0.000000
vertex 1.430146 -80.000000 0.000000
endloop
endfacet
facet normal 0.000000 0.000000 -1.000000
outer loop
vertex 13.715073 -76.516655 0.000000
vertex 10.832621 -78.020866 0.000000
vertex 7.789290 -79.114067 0.000000
endloop
endfacet
facet normal 0.000000 0.000000 -1.000000
outer loop
vertex 18.803654 -72.384781 0.000000
vertex 16.387323 -74.627182 0.000000
vertex 13.715073 -76.516655 0.000000
endloop
endfacet
facet normal 0.000000 0.000000 -1.000000
outer loop
vertex 22.708261 -67.000000 0.000000
vertex 20.922720 -69.827797 0.000000
vertex 18.803654 -72.384781 0.000000
endloop
endfacet
facet normal 0.000000 0.000000 -1.000000
outer loop
vertex 25.162800 -60.729294 0.000000
vertex 24.129728 -63.949768 0.000000
vertex 22.708261 -67.000000 0.000000
endloop
endfacet
facet normal 0.000000 0.000000 -1.000000
outer loop
vertex 26.000000 -53.999996 0.000000
vertex 25.789801 -57.393681 0.000000
vertex 25.162800 -60.729294 0.000000
endloop
endfacet
facet normal 0.000000 0.000000 -1.000000
outer loop
vertex 17.654133 -57.326996 0.000000
vertex 18.000000 -53.815365 0.000000
vertex 26.000000 -53.999996 0.000000
endloop
endfacet
facet normal 0.000000 0.000000 -1.000000
outer loop
vertex 16.629831 -60.703667 0.000000
vertex 17.654133 -57.326996 0.000000
vertex 26.000000 -53.999996 0.000000
endloop
endfacet
facet normal 0.000000 0.000000 -1.000000
outer loop
vertex 26.000000 -53.999996 0.000000
vertex 25.162800 -60.729294 0.000000
vertex 22.708261 -67.000000 0.000000
endloop
endfacet
facet normal 0.000000 0.000000 -1.000000
outer loop
vertex 22.708261 -67.000000 0.000000
vertex 18.803654 -72.384781 0.000000
vertex 13.715073 -76.516655 0.000000
endloop
endfacet
facet normal 0.000000 0.000000 -1.000000
outer loop
vertex 13.715073 -76.516655 0.000000
vertex 7.789290 -79.114067 0.000000
vertex 1.430146 -80.000000 0.000000
endloop
endfacet
facet normal 0.000000 0.000000 -1.000000
outer loop
vertex 1.430146 -80.000000 0.000000
vertex -4.637154 -79.777565 0.000000
vertex -10.832621 -78.020866 0.000000
endloop
endfacet
facet normal 0.000000 0.000000 -1.000000
outer loop
vertex -10.832621 -78.020866 0.000000
vertex -16.387323 -74.627182 0.000000
vertex -20.922720 -69.827797 0.000000
endloop
endfacet
facet normal 0.000000 0.000000 -1.000000
outer loop
vertex -20.922720 -69.827797 0.000000
vertex -24.129728 -63.949768 0.000000
vertex -25.789801 -57.393681 0.000000
endloop
endfacet
facet normal 0.000000 0.000000 -1.000000
outer loop
vertex -25.789801 -57.393681 0.000000
vertex -18.000000 -53.815350 0.000000
vertex -17.654139 -57.326973 0.000000
endloop
endfacet
facet normal 0.000000 0.000000 -1.000000
outer loop
vertex -25.789801 -57.393681 0.000000
vertex -17.654139 -57.326973 0.000000
vertex -16.629837 -60.703659 0.000000
endloop
endfacet
facet normal 0.000000 0.000000 -1.000000
outer loop
vertex -10.832621 -78.020866 0.000000
vertex -20.922720 -69.827797 0.000000
vertex -25.789801 -57.393681 0.000000
endloop
endfacet
facet normal 0.000000 0.000000 -1.000000
outer loop
vertex 13.715073 -76.516655 0.000000
vertex 1.430146 -80.000000 0.000000
vertex -10.832621 -78.020866 0.000000
endloop
endfacet
facet normal 0.000000 0.000000 -1.000000
outer loop
vertex 26.000000 -53.999996 0.000000
vertex 22.708261 -67.000000 0.000000
vertex 13.715073 -76.516655 0.000000
endloop
endfacet
facet normal 0.000000 0.000000 -1.000000
outer loop
vertex 14.966455 -63.815632 0.000000
vertex 16.629831 -60.703667 0.000000
vertex 26.000000 -53.999996 0.000000
endloop
endfacet
facet normal 0.000000 0.000000 -1.000000
outer loop
vertex 12.727921 -66.543289 0.000000
vertex 14.966455 -63.815632 0.000000
vertex 26.000000 -53.999996 0.000000
endloop
endfacet
facet normal 0.000000 0.000000 -1.000000
outer loop
vertex -10.832621 -78.020866 0.000000
vertex -25.789801 -57.393681 0.000000
vertex -16.629837 -60.703659 0.000000
endloop
endfacet
facet normal 0.000000 0.000000 -1.000000
outer loop
vertex -10.832621 -78.020866 0.000000
vertex -16.629837 -60.703659 0.000000
vertex -14.966461 -63.815620 0.000000
endloop
endfacet
facet normal 0.000000 0.000000 -1.000000
outer loop
vertex 12.727921 -66.543289 0.000000
vertex 26.000000 -53.999996 0.000000
vertex 13.715073 -76.516655 0.000000
endloop
endfacet
facet normal 0.000000 0.000000 -1.000000
outer loop
vertex 10.000263 -68.781822 0.000000
vertex 12.727921 -66.543289 0.000000
vertex 13.715073 -76.516655 0.000000
endloop
endfacet
facet normal 0.000000 0.000000 -1.000000
outer loop
vertex -10.832621 -78.020866 0.000000
vertex -14.966461 -63.815620 0.000000
vertex -12.727931 -66.543282 0.000000
endloop
endfacet
facet normal 0.000000 0.000000 -1.000000
outer loop
vertex -10.832621 -78.020866 0.000000
vertex -12.727931 -66.543282 0.000000
vertex -10.000272 -68.781815 0.000000
endloop
endfacet
facet normal 0.000000 0.000000 -1.000000
outer loop
vertex 6.888299 -70.445206 0.000000
vertex 10.000263 -68.781822 0.000000
vertex 13.715073 -76.516655 0.000000
endloop
endfacet
facet normal 0.000000 0.000000 -1.000000
outer loop
vertex 3.511621 -71.469505 0.000000
vertex 6.888299 -70.445206 0.000000
vertex 13.715073 -76.516655 0.000000
endloop
endfacet
facet normal 0.000000 0.000000 -1.000000
outer loop
vertex -10.832621 -78.020866 0.000000
vertex -10.000272 -68.781815 0.000000
vertex -6.888309 -70.445190 0.000000
endloop
endfacet
facet normal 0.000000 0.000000 -1.000000
outer loop
vertex -10.832621 -78.020866 0.000000
vertex -6.888309 -70.445190 0.000000
vertex -3.511633 -71.469505 0.000000
endloop
endfacet
facet normal 0.000000 0.000000 -1.000000
outer loop
vertex 3.511621 -71.469505 0.000000
vertex 13.715073 -76.516655 0.000000
vertex -10.832621 -78.020866 0.000000
endloop
endfacet
facet normal 0.000000 0.000000 -1.000000
outer loop
vertex -10.832621 -78.020866 0.000000
vertex -3.511633 -71.469505 0.000000
vertex -0.000006 -71.815369 0.000000
endloop
endfacet
facet normal 0.000000 0.000000 -1.000000
outer loop
vertex -0.000006 -71.815369 0.000000
vertex 3.511621 -71.469505 0.000000
vertex -10.832621 -78.020866 0.000000
endloop
endfacet
facet normal 0.000000 -1.000000 0.000000
outer loop
vertex 18.000000 -1.203775 -0.000001
vertex 18.000000 -1.203775 15.999996
vertex -18.000000 -1.203775 15.999996
endloop
endfacet
facet normal 0.000000 -1.000000 0.000000
outer loop
vertex 18.000000 -1.203775 -0.000001
vertex -18.000000 -1.203775 15.999996
vertex -18.000000 -1.203775 -0.000001
endloop
endfacet
facet normal 0.773011 0.634392 0.000000
outer loop
vertex -14.966461 -63.815620 0.000000
vertex -14.966461 -63.815620 15.999998
vertex -12.727931 -66.543282 16.000002
endloop
endfacet
facet normal 0.773011 0.634393 0.000000
outer loop
vertex -14.966461 -63.815620 0.000000
vertex -12.727931 -66.543282 16.000002
vertex -12.727931 -66.543282 0.000000
endloop
endfacet
facet normal -0.995185 0.098018 0.000000
outer loop
vertex 17.654133 -57.326996 0.000000
vertex 17.654135 -57.326996 16.000000
vertex 18.000000 -53.815365 16.000000
endloop
endfacet
facet normal -0.995185 0.098018 0.000000
outer loop
vertex 17.654133 -57.326996 0.000000
vertex 18.000000 -53.815365 16.000000
vertex 18.000000 -53.815365 0.000000
endloop
endfacet
facet normal -0.956940 0.290285 0.000000
outer loop
vertex 16.629831 -60.703667 0.000000
vertex 16.629831 -60.703667 16.000000
vertex 17.654135 -57.326996 16.000000
endloop
endfacet
facet normal -0.956941 0.290284 0.000000
outer loop
vertex 16.629831 -60.703667 0.000000
vertex 17.654135 -57.326996 16.000000
vertex 17.654133 -57.326996 0.000000
endloop
endfacet
facet normal 0.995185 0.098017 0.000000
outer loop
vertex -18.000000 -53.815350 0.000000
vertex -18.000000 -53.815350 15.999998
vertex -17.654139 -57.326981 15.999998
endloop
endfacet
facet normal 0.995185 0.098016 0.000000
outer loop
vertex -18.000000 -53.815350 0.000000
vertex -17.654139 -57.326981 15.999998
vertex -17.654139 -57.326973 0.000000
endloop
endfacet
facet normal 0.881922 0.471396 0.000000
outer loop
vertex -16.629837 -60.703659 0.000000
vertex -16.629839 -60.703659 15.999998
vertex -14.966461 -63.815620 15.999998
endloop
endfacet
facet normal 0.881922 0.471396 0.000000
outer loop
vertex -16.629837 -60.703659 0.000000
vertex -14.966461 -63.815620 15.999998
vertex -14.966461 -63.815620 0.000000
endloop
endfacet
facet normal 0.956941 0.290284 0.000000
outer loop
vertex -17.654139 -57.326973 0.000000
vertex -17.654139 -57.326981 15.999998
vertex -16.629839 -60.703659 15.999998
endloop
endfacet
facet normal 0.956941 0.290284 0.000000
outer loop
vertex -17.654139 -57.326973 0.000000
vertex -16.629839 -60.703659 15.999998
vertex -16.629837 -60.703659 0.000000
endloop
endfacet
facet normal -0.881922 0.471396 0.000000
outer loop
vertex 14.966455 -63.815632 0.000000
vertex 14.966455 -63.815632 16.000000
vertex 16.629831 -60.703667 16.000000
endloop
endfacet
facet normal -0.881922 0.471396 0.000000
outer loop
vertex 14.966455 -63.815632 0.000000
vertex 16.629831 -60.703667 16.000000
vertex 16.629831 -60.703667 0.000000
endloop
endfacet
facet normal -0.471398 0.881921 0.000000
outer loop
vertex 6.888299 -70.445206 0.000000
vertex 6.888299 -70.445206 15.999998
vertex 10.000263 -68.781822 15.999998
endloop
endfacet
facet normal -0.471397 0.881921 0.000000
outer loop
vertex 6.888299 -70.445206 0.000000
vertex 10.000263 -68.781822 15.999998
vertex 10.000263 -68.781822 0.000000
endloop
endfacet
endsolid Exported from Blender-2.82 (sub 7)
